<svg xmlns="http://www.w3.org/2000/svg" width="41.708" height="54.695" viewBox="0 0 41.708 54.695"><g transform="translate(-1272.332 -30.752)"><path d="M1278.25,48.258a15.3,15.3,0,0,1,24.926-11.164l7.283-1.62-4.253.418a18.211,18.211,0,0,0-30.891,13.088c0,.593.031,1.179.088,1.757l-3.071,6.481Z" fill="#fff" opacity="0.702"/><path d="M1310.188,45.152l-1.508,1.535a15.309,15.309,0,0,1-29.54,7.481l-.02-.025-5.383,4.965,3.449-2.1a18.221,18.221,0,0,0,34.582-8.026c0-.258,2.272-8.381,2.272-8.381.039-.279-2.209,6.216-2.209,6.216Z" fill="#fff" opacity="0.702"/><path d="M1303.745,49.379l-2.256,2.316-.241.241-4.03-4.271-6.2,6.106-2.046-2.346-1.534-1.775-.18.181-1.685,1.564-5.534,5.174,4.933-7.1,1.8-2.557.241-.361.6-.872,3.067,3.91,7.069-8.934,2.737,3.129.933,1.082.211-.21.36.632a14.223,14.223,0,0,1,1.534,3.309A7.293,7.293,0,0,1,1303.745,49.379Z" fill="#fff" opacity="0.702"/><path d="M1313.25,36.9l-.24.812-2.136,6.527v.03l-.12-.121-.9-.992-1.2,1.233-4.9,4.993-2.256,2.316-.241.241-4.03-4.271-6.2,6.106-2.046-2.346a14.16,14.16,0,0,1-1.263-2.527c-.181-.451-.331-.932-.481-1.413a8.279,8.279,0,0,1-.211-.933l.6-.872,3.067,3.91,7.069-8.934,2.737,3.129.933,1.082.211-.21,4.812-4.933.151-.15-1.113-1.234.361-.09,1.805-.361,4.752-1.023.662-.15Z" fill="#fff" opacity="0.24"/><path d="M1313.01,37.709l-2.136,6.527v.03l-.12-.121-.9-.992-1.2,1.233-4.9,4.993-2.256,2.316a7.255,7.255,0,0,1-.33-.872,13.748,13.748,0,0,1-.812-6.136,4.712,4.712,0,0,1,.149-.9l.933,1.082.211-.21,4.812-4.933.151-.15-1.113-1.234.361-.09,1.805-.361,4.752-1.023A7.221,7.221,0,0,0,1313.01,37.709Z" fill="#fff"/><text transform="translate(1276.499 82.447)" fill="#fff" font-size="10.825" font-family="SegoeUI, Segoe UI"><tspan x="0" y="0">STATE</tspan></text><path d="M1313.13,36.716l-.15.571-1.083,3.82-.873,2.648a13.756,13.756,0,0,0-1.173-1.534.029.029,0,0,0-.03-.03c-.03-.031-.03-.061-.06-.091a18.59,18.59,0,0,0-2.2-2.466V39.6l-.09-.089c-.15-.151-.3-.3-.481-.452a8.707,8.707,0,0,0-.963-.812l.813-.18.812-.181,4.752-1.023.662-.15Z" fill="#fff" opacity="0.702"/></g></svg>